# File created by Blade
# Date/Time:  Fri Jan 16 17:45:47 2015
#---------------------------------------------------------
:version 1.10
:name HOM
:units
  mass 1.0
  length 1.000000
  angle deg
:documentation
     Acclaim Skeleton File
:root
   axis xyz
   order TX TY TZ RX RY RZ
   position 0.000000 0.000000 0.000000
   orientation 0 0 0
:bonedata
   begin
      id 1
      name Spine_dum
      direction 0.000000 1.000000 0.000000
      length 7.170412
      axis 0.0 0.0 0.0 xyz
   end
   begin
      id 2
      name LeftUpLeg_dum
      direction 1.000000 0.000000 0.000000
      length 4.318350
      axis 0.0 0.0 0.0 xyz
   end
   begin
      id 3
      name RightUpLeg_dum
      direction -1.000000 0.000000 0.000000
      length 4.318350
      axis 0.0 0.0 0.0 xyz
   end
   begin
      id 4
      name Spine
      direction 0.000000 1.000000 0.000000
      length 0.000000
      axis 0.0 0.0 0.0 xyz
      dof rx ry rz
   end
   begin
      id 5
      name Spine_dum1
      direction 0.000000 1.000000 0.000000
      length 14.276153
      axis 0.0 0.0 0.0 xyz
   end
   begin
      id 6
      name Spine_dum2
      direction 0.000000 1.000000 0.000000
      length 10.718243
      axis 0.0 0.0 0.0 xyz
   end
   begin
      id 7
      name Spine_dum3
      direction 0.000000 1.000000 0.000000
      length 10.718243
      axis 0.0 0.0 0.0 xyz
   end
   begin
      id 8
      name Head
      direction 0.000000 1.000000 0.000000
      length 4.527550
      axis 0.0 0.0 0.0 xyz
      dof rx ry rz
   end
   begin
      id 9
      name LeftShoulder
      direction 1.000000 0.000000 0.000000
      length 7.058872
      axis 0.0 0.0 -90.0 xyz
      dof rx ry rz
   end
   begin
      id 10
      name LeftArm
      direction 1.000000 0.000000 0.000000
      length 10.955525
      axis 0.0 0.0 -90.0 xyz
      dof rx ry rz
   end
   begin
      id 11
      name LeftForeArm
      direction 1.000000 0.000000 0.000000
      length 8.193716
      axis 0.0 0.0 -90.0 xyz
      dof ry rz rx
   end
   begin
      id 12
      name LeftHand
      direction 0.000000 0.000000 0.000000
      length 0.000000
      axis 0.0 0.0 -90.0 xyz
      dof rx ry rz
   end
   begin
      id 13
      name LeftHand_dum1
      direction 0.000000 0.000000 0.000000
      length 0.000000
      axis 0.0 0.0 -90.0 xyz
   end
   begin
      id 14
      name LeftHand_dum2
      direction 1.000000 0.000000 0.000000
      length 3.937000
      axis 0.0 0.0 -90.0 xyz
   end
   begin
      id 15
      name LeftHandThumb1
      direction 0.000000 0.000000 1.000000
      length 3.937000
      axis 0.0 0.0 -90.0 xyz
      dof rx rz ry
   end
   begin
      id 16
      name RightShoulder
      direction -1.000000 0.000000 0.000000
      length 7.058872
      axis 0.0 0.0 90.0 xyz
      dof rx ry rz
   end
   begin
      id 17
      name RightArm
      direction -1.000000 0.000000 0.000000
      length 10.955525
      axis 0.0 0.0 90.0 xyz
      dof rx ry rz
   end
   begin
      id 18
      name RightForeArm
      direction -1.000000 0.000000 0.000000
      length 8.193716
      axis 0.0 0.0 90.0 xyz
      dof ry rz rx
   end
   begin
      id 19
      name RightHand
      direction 0.000000 0.000000 0.000000
      length 0.000000
      axis 0.0 0.0 90.0 xyz
      dof rx ry rz
   end
   begin
      id 20
      name RightHand_dum1
      direction 0.000000 0.000000 0.000000
      length 0.000000
      axis 0.0 0.0 90.0 xyz
   end
   begin
      id 21
      name RightHand_dum2
      direction -1.000000 0.000000 0.000000
      length 3.937000
      axis 0.0 0.0 90.0 xyz
   end
   begin
      id 22
      name RightHandThumb1
      direction 0.000000 0.000000 1.000000
      length 3.937000
      axis 0.0 0.0 90.0 xyz
      dof rx rz ry
   end
   begin
      id 23
      name LeftUpLeg
      direction 0.000000 -1.000000 0.000000
      length 17.323638
      axis 0.0 0.0 0.0 xyz
      dof rx ry rz
   end
   begin
      id 24
      name LeftLeg
      direction 0.000000 -1.000000 0.000000
      length 16.270368
      axis 0.0 0.0 0.0 xyz
      dof rx ry rz
   end
   begin
      id 25
      name LeftFoot
      direction 0.000000 -0.258819 0.965926
      length 4.922846
      axis 15.0 0.0 0.0 xyz
      dof rx ry rz
   end
   begin
      id 26
      name LeftToeBase
      direction 0.000000 0.000000 1.000000
      length 2.952750
      axis 0.0 0.0 0.0 xyz
      dof rx ry rz
   end
   begin
      id 27
      name RightUpLeg
      direction 0.000000 -1.000000 0.000000
      length 17.323638
      axis 0.0 0.0 0.0 xyz
      dof rx ry rz
   end
   begin
      id 28
      name RightLeg
      direction 0.000000 -1.000000 0.000000
      length 16.270368
      axis 0.0 0.0 0.0 xyz
      dof rx ry rz
   end
   begin
      id 29
      name RightFoot
      direction 0.000000 -0.258819 0.965926
      length 4.922846
      axis 15.0 0.0 0.0 xyz
      dof rx ry rz
   end
   begin
      id 30
      name RightToeBase
      direction 0.000000 0.000000 1.000000
      length 2.952750
      axis 0.0 0.0 0.0 xyz
      dof rx ry rz
   end
:hierarchy
   begin
      root Spine_dum LeftUpLeg_dum RightUpLeg_dum
      Spine_dum Spine
      LeftUpLeg_dum LeftUpLeg
      RightUpLeg_dum RightUpLeg
      Spine Spine_dum1 Spine_dum2 Spine_dum3
      Spine_dum1 Head
      Spine_dum2 LeftShoulder
      Spine_dum3 RightShoulder
      LeftShoulder LeftArm
      LeftArm LeftForeArm
      LeftForeArm LeftHand
      LeftHand LeftHand_dum1 LeftHand_dum2
      LeftHand_dum1 LeftHandThumb1
      RightShoulder RightArm
      RightArm RightForeArm
      RightForeArm RightHand
      RightHand RightHand_dum1 RightHand_dum2
      RightHand_dum1 RightHandThumb1
      LeftUpLeg LeftLeg
      LeftLeg LeftFoot
      LeftFoot LeftToeBase
      RightUpLeg RightLeg
      RightLeg RightFoot
      RightFoot RightToeBase
   end

# File created by Blade
# Date/Time:  Fri Jan 16 17:45:28 2015
# Frame Rate: 120.000 fps
#------------------------------------------------------
:FULLY-SPECIFIED
:DEGREES
3195
root -5.033612 35.170402 -9.431338 -0.690285 -5.500238 -6.322566
Spine -3.886128 -3.799540 9.849383
Head 8.866719 6.076212 -5.234336
LeftShoulder -22.072647 14.126714 -14.776129
LeftArm 16.907682 -3.338532 -77.809416
LeftForeArm 4.761313 -0.000000 12.873323
LeftHand 1.814316 -0.000000 -5.713232
LeftHandThumb1 -26.253704 0.000000 33.147579
RightShoulder -10.200485 4.409815 4.710207
RightArm -28.396252 64.916805 46.858650
RightForeArm 48.941668 -0.000000 83.620262
RightHand -1.721128 0.000000 -53.400064
RightHandThumb1 -24.326973 -0.000000 -32.862282
LeftUpLeg 11.897623 14.519904 6.819977
LeftLeg -9.745773 -0.000000 0.000000
LeftFoot -16.372820 28.059939 -7.624834
LeftToeBase 23.047522 -0.000000 -0.000000
RightUpLeg 8.068482 -4.554091 3.833853
RightLeg -4.495119 -0.000000 0.000000
RightFoot -5.006758 -27.254708 4.640210
RightToeBase 13.625329 -0.000000 -0.000000
3196
root -5.037140 35.170903 -9.431483 -0.649715 -5.466579 -6.326022
Spine -3.936898 -3.813360 9.859446
Head 8.871364 5.965350 -5.286015
LeftShoulder -22.055540 14.140150 -14.758987
LeftArm 16.898063 -3.401590 -77.803996
LeftForeArm 4.771951 0.000000 12.925607
LeftHand 1.868950 -0.000000 -5.573825
LeftHandThumb1 -26.253704 0.000000 33.147579
RightShoulder -10.274523 4.396670 4.662335
RightArm -28.517342 65.176129 46.602586
RightForeArm 48.464982 0.000000 85.471332
RightHand -1.259584 0.000000 -53.823061
RightHandThumb1 -24.326973 -0.000000 -32.862282
LeftUpLeg 11.843786 14.482775 6.815909
LeftLeg -9.734877 -0.000000 0.000000
LeftFoot -16.351803 28.031602 -7.672296
LeftToeBase 22.932776 -0.000000 -0.000000
RightUpLeg 8.042252 -4.581866 3.845253
RightLeg -4.518910 -0.000000 0.000000
RightFoot -4.991555 -27.250169 4.648995
RightToeBase 13.652385 -0.000000 -0.000000
3197
root -5.039884 35.171336 -9.430453 -0.623619 -5.432314 -6.329529
Spine -3.969240 -3.848251 9.875947
Head 8.856995 5.894810 -5.346930
LeftShoulder -22.059810 14.133977 -14.746808
LeftArm 16.876800 -3.456803 -77.803940
LeftForeArm 4.783742 -0.000000 12.974495
LeftHand 1.959040 -0.000000 -5.454459
LeftHandThumb1 -26.253704 0.000000 33.147579
RightShoulder -10.326787 4.418883 4.603434
RightArm -28.708913 65.376966 46.304270
RightForeArm 47.862896 0.000000 87.321599
RightHand -1.354729 -0.000000 -54.567226
RightHandThumb1 -24.326973 -0.000000 -32.862282
LeftUpLeg 11.816686 14.457271 6.816040
LeftLeg -9.747651 -0.000000 0.000000
LeftFoot -16.337257 28.031833 -7.686287
LeftToeBase 22.876412 -0.000000 -0.000000
RightUpLeg 8.031896 -4.597593 3.854746
RightLeg -4.540196 -0.000000 0.000000
RightFoot -4.990331 -27.259832 4.675690
RightToeBase 13.631858 -0.000000 -0.000000
3198
root -5.042543 35.171528 -9.431101 -0.579308 -5.399326 -6.337150
Spine -4.022626 -3.878901 9.898948
Head 8.841626 5.839869 -5.415233
LeftShoulder -22.053039 14.169007 -14.740182
LeftArm 16.879146 -3.441270 -77.797559
LeftForeArm 4.620622 0.000000 13.027340
LeftHand 2.011543 0.000000 -5.393436
LeftHandThumb1 -26.253704 0.000000 33.147579
RightShoulder -10.394499 4.425137 4.551028
RightArm -28.821777 65.578700 46.072657
RightForeArm 47.052350 -0.000000 89.114438
RightHand -0.753398 -0.000000 -56.097529
RightHandThumb1 -24.326973 -0.000000 -32.862282
LeftUpLeg 11.765730 14.445264 6.817394
LeftLeg -9.753690 -0.000000 0.000000
LeftFoot -16.336121 28.047487 -7.593428
LeftToeBase 23.050403 -0.000000 -0.000000
RightUpLeg 7.997118 -4.611034 3.871417
RightLeg -4.557008 -0.000000 0.000000
RightFoot -4.973342 -27.275260 4.679822
RightToeBase 13.592668 -0.000000 -0.000000
